<svg xmlns="http://www.w3.org/2000/svg" width="792" height="144" viewBox="-6 93 792 144" role="img" aria-label="{christian fonseca}"><defs><linearGradient id="gv" x1="0" y1="0" x2="0" y2="1"><stop offset="0" stop-color="#A855F7"></stop><stop offset="1" stop-color="#EC4899"></stop></linearGradient></defs><path d="M56.784 212.320L51.072 212.320Q41.104 212.320 35.336 207.336Q29.568 202.352 30.352 193.392L30.352 193.392L32.032 175.360Q32.592 169.760 30.408 167.240Q28.224 164.720 21.504 164.720L21.504 164.720L8.288 164.720L8.288 154.752L21.504 154.752Q28.224 154.752 30.408 152.176Q32.592 149.600 32.032 144L32.032 144L30.352 125.856Q29.568 117.008 35.336 112.024Q41.104 107.040 51.072 107.040L51.072 107.040L56.784 107.040L56.784 117.008L51.520 117.008Q46.480 117.008 43.792 119.360Q41.104 121.712 41.440 126.192L41.440 126.192L43.120 144.336Q43.792 150.720 40.096 154.640Q36.400 158.560 28.448 159.344L28.448 159.344Q36.400 160.240 40.096 164.496Q43.792 168.752 43.120 175.024L43.120 175.024L41.440 193.168Q41.104 197.648 43.792 200Q46.480 202.352 51.520 202.352L51.520 202.352L56.784 202.352L56.784 212.320Z" fill="#6928B0"></path><path d="M93.400 200.900L93.400 200.900Q87.900 200.900 84.300 196.350Q80.700 191.800 80.700 184.700L80.700 184.700Q80.700 178 82.850 171.550Q85 165.100 88.650 159.850Q92.300 154.600 96.750 151.500Q101.200 148.400 105.700 148.400L105.700 148.400Q110.500 148.400 113.800 151L113.800 151Q114.300 151.400 114.400 151.650Q114.500 151.900 114.300 152.700L114.300 152.700L111.600 165.800Q111.300 167.200 110.300 167.200L110.300 167.200Q109.200 167.200 109 165.700L109 165.700L108.500 158.600Q108.200 154 107.150 152.600Q106.100 151.200 104.100 151.200L104.100 151.200Q101.300 151.200 98.400 153.950Q95.500 156.700 93.050 161.350Q90.600 166 89.150 171.650Q87.700 177.300 87.700 183.100L87.700 183.100Q87.700 195.700 95.900 195.700L95.900 195.700Q99.800 195.700 102.950 192.100Q106.100 188.500 108.800 180.900L108.800 180.900Q109.100 179.900 110.200 179.900L110.200 179.900Q110.800 179.900 110.900 180.350Q111 180.800 110.700 182.100L110.700 182.100Q109.700 187.600 107.100 191.800Q104.500 196 100.950 198.450Q97.400 200.900 93.400 200.900ZM146.500 200.900L146.500 200.900Q142.900 200.900 141.100 197.900Q139.300 194.900 140.900 188.600L140.900 188.600L148.600 159.600Q149.700 155.700 148.950 154.200Q148.200 152.700 146.800 152.700L146.800 152.700Q144.600 152.700 141.850 155.450Q139.100 158.200 136.150 162.950Q133.200 167.700 130.450 173.650Q127.700 179.600 125.400 186.150Q123.100 192.700 121.700 198.900L121.700 198.900Q121.400 200 120.300 200L120.300 200L116.100 200Q114.700 200 115.000 198.700L115.000 198.700L129.600 136Q130.100 134.200 129.650 133.500Q129.200 132.800 127.800 132.700L127.800 132.700L124.800 132.400Q123.300 132.300 123.500 131.100L123.500 131.100Q123.700 130.200 124.900 130L124.900 130Q128.500 129.400 131.300 128.550Q134.100 127.700 135.800 126.300L135.800 126.300Q136.600 125.700 137.300 125.700L137.300 125.700Q138.500 125.700 138.200 127.200L138.200 127.200L128.400 169.700Q128.300 170.400 128.700 170.500Q129.100 170.600 129.400 170L129.400 170Q133.400 161.800 137 157.100Q140.600 152.400 143.750 150.400Q146.900 148.400 149.500 148.400L149.500 148.400Q153.200 148.400 154.900 151.400Q156.600 154.400 154.900 160.600L154.900 160.600L147.300 189.600Q146.600 192.400 147.200 193.800Q147.800 195.200 149.400 195.200L149.400 195.200Q151.400 195.200 153.300 192.550Q155.200 189.900 157.400 182.500L157.400 182.500Q157.700 181.400 158.700 181.400L158.700 181.400Q159.500 181.400 159.650 182Q159.800 182.600 159.600 183.400L159.600 183.400Q157.700 190.200 155.500 194.050Q153.300 197.900 151.050 199.400Q148.800 200.900 146.500 200.900ZM172.400 200L168.300 200Q166.900 200 167.200 198.700L167.200 198.700L176.700 158.800Q177.200 156.600 176.850 155.350Q176.500 154.100 175 154.100L175 154.100Q173.200 154.100 171.050 156.750Q168.900 159.400 166.200 166.800L166.200 166.800Q165.800 168.100 164.800 168.100L164.800 168.100Q163.300 168.100 164 166.300L164 166.300Q166.200 159.400 168.650 155.500Q171.100 151.600 173.600 150Q176.100 148.400 178.200 148.400L178.200 148.400Q181.500 148.400 182.900 150.850Q184.300 153.300 183 158.900L183 158.900L181.900 163.600Q181.800 164.300 182.200 164.400Q182.600 164.500 182.900 163.900L182.900 163.900Q186.700 155.200 189.800 151.800Q192.900 148.400 196.900 148.400L196.900 148.400Q199.600 148.400 200.950 149.850Q202.300 151.300 202.300 153.800L202.300 153.800Q202.300 156.300 201.100 157.800Q199.900 159.300 198 159.300L198 159.300Q196.400 159.300 195.700 158.500Q195 157.700 194.650 156.650Q194.300 155.600 193.900 154.800Q193.500 154 192.600 154L192.600 154Q191.100 154 188.700 157.800Q186.300 161.600 183.550 168.050Q180.800 174.500 178.250 182.500Q175.700 190.500 173.800 198.900L173.800 198.900Q173.500 200 172.400 200L172.400 200ZM219.100 139.500L219.100 139.500Q217.200 139.500 215.950 138.150Q214.700 136.800 214.700 134.900L214.700 134.900Q214.700 132.200 216.350 130.600Q218.000 129 220.100 129L220.100 129Q222.100 129 223.450 130.250Q224.800 131.500 224.800 133.500L224.800 133.500Q224.800 136.300 223.100 137.900Q221.400 139.500 219.100 139.500ZM210.900 201L210.900 201Q207.600 201 206.200 198.550Q204.800 196.100 206.100 190.500L206.100 190.500L213.500 158.800Q214.000 156.600 213.650 155.350Q213.300 154.100 211.800 154.100L211.800 154.100Q210.000 154.100 207.850 156.750Q205.700 159.400 203.000 166.800L203.000 166.800Q202.600 168.100 201.600 168.100L201.600 168.100Q200.100 168.100 200.800 166.300L200.800 166.300Q203.000 159.400 205.450 155.500Q207.900 151.600 210.400 150Q212.900 148.400 215.000 148.400L215.000 148.400Q218.500 148.400 219.900 150.850Q221.300 153.300 220.000 158.900L220.000 158.900L212.600 190.600Q212.100 192.800 212.450 194.050Q212.800 195.300 214.300 195.300L214.300 195.300Q216.100 195.300 218.250 192.650Q220.400 190 223.100 182.600L223.100 182.600Q223.500 181.300 224.500 181.300L224.500 181.300Q226.000 181.300 225.300 183.100L225.300 183.100Q223.200 189.900 220.650 193.850Q218.100 197.800 215.600 199.400Q213.100 201 210.900 201ZM239.100 200.900L239.100 200.900Q235.800 200.900 232.150 199.900Q228.500 198.900 226.600 197.400L226.600 197.400Q225.900 196.800 226.000 195.600L226.000 195.600L228.200 182.500Q228.400 181.200 229.400 181.200L229.400 181.200Q230.500 181.200 230.500 182.600L230.500 182.600L230.700 187.400Q230.900 193.100 233.450 195.750Q236.000 198.400 239.700 198.400L239.700 198.400Q242.900 198.400 245.200 196.350Q247.500 194.300 247.500 190.300L247.500 190.300Q247.500 188 246.800 186.050Q246.100 184.100 244.600 181.850Q243.100 179.600 240.500 176.400L240.500 176.400Q237.100 172 235.450 168.850Q233.800 165.700 233.800 162.300L233.800 162.300Q233.800 156 237.750 152.200Q241.700 148.400 247.800 148.400L247.800 148.400Q250.500 148.400 253.050 149.200Q255.600 150 257.300 151.600L257.300 151.600Q258.200 152.300 257.900 153.400L257.900 153.400L255.100 166.800Q254.800 168.100 253.900 168.100L253.900 168.100Q253.000 168.100 252.800 166.700L252.800 166.700L252.500 161.900Q252.100 155.900 250.950 153.300Q249.800 150.700 246.200 150.700L246.200 150.700Q243.000 150.700 241.000 152.900Q239.000 155.100 239.000 158.200L239.000 158.200Q239.000 161.500 240.800 164.250Q242.600 167 245.700 171.200L245.700 171.200Q249.800 176.600 251.250 179.800Q252.700 183 252.700 186.300L252.700 186.300Q252.700 190.500 250.850 193.800Q249.000 197.100 245.900 199Q242.800 200.900 239.100 200.900ZM267.900 200.900L267.900 200.900Q264.500 200.900 262.600 198.200Q260.700 195.500 262.000 189.500L262.000 189.500L270.300 153.300Q270.600 151.800 269.100 151.800L269.100 151.800L265.300 151.800Q263.900 151.800 263.900 150.500L263.900 150.500Q263.900 149.800 264.400 149.400Q264.900 149 265.600 149L265.600 149L269.200 149Q271.500 149 271.900 146.900L271.900 146.900L274.300 136.200Q274.600 135.100 275.700 135.100L275.700 135.100L279.800 135.100Q281.200 135.100 280.900 136.400L280.900 136.400L278.400 147.500Q278.100 149 279.600 149L279.600 149L285.300 149Q287.000 149 287.000 150.300L287.000 150.300Q287.000 151.800 284.900 151.800L284.900 151.800L279.500 151.800Q277.300 151.800 276.800 153.900L276.800 153.900L268.400 190.500Q267.900 192.700 268.550 193.950Q269.200 195.200 270.800 195.200L270.800 195.200Q273.100 195.200 275.050 192.600Q277.000 190 279.200 182.700L279.200 182.700Q279.600 181.400 280.500 181.400L280.500 181.400Q281.200 181.400 281.400 182Q281.600 182.600 281.100 184.200L281.100 184.200Q279.200 191 276.950 194.600Q274.700 198.200 272.400 199.550Q270.100 200.900 267.900 200.900ZM305.300 139.500L305.300 139.500Q303.400 139.500 302.150 138.150Q300.900 136.800 300.900 134.900L300.900 134.900Q300.900 132.200 302.550 130.600Q304.200 129 306.300 129L306.300 129Q308.300 129 309.650 130.250Q311.000 131.500 311.000 133.500L311.000 133.500Q311.000 136.300 309.300 137.900Q307.600 139.500 305.300 139.500ZM297.100 201L297.100 201Q293.800 201 292.400 198.550Q291.000 196.100 292.300 190.500L292.300 190.500L299.700 158.800Q300.200 156.600 299.850 155.350Q299.500 154.100 298.000 154.100L298.000 154.100Q296.200 154.100 294.050 156.750Q291.900 159.400 289.200 166.800L289.200 166.800Q288.800 168.100 287.800 168.100L287.800 168.100Q286.300 168.100 287.000 166.300L287.000 166.300Q289.200 159.400 291.650 155.500Q294.100 151.600 296.600 150Q299.100 148.400 301.200 148.400L301.200 148.400Q304.700 148.400 306.100 150.850Q307.500 153.300 306.200 158.900L306.200 158.900L298.800 190.600Q298.300 192.800 298.650 194.050Q299.000 195.300 300.500 195.300L300.500 195.300Q302.300 195.300 304.450 192.650Q306.600 190 309.300 182.600L309.300 182.600Q309.700 181.300 310.700 181.300L310.700 181.300Q312.200 181.300 311.500 183.100L311.500 183.100Q309.400 189.900 306.850 193.850Q304.300 197.800 301.800 199.400Q299.300 201 297.100 201ZM322.600 200.900L322.600 200.900Q319.000 200.900 317.000 197.800Q315.000 194.700 315.000 188.700L315.000 188.700Q315.000 183 316.600 177.250Q318.200 171.500 321.000 166.300Q323.800 161.100 327.350 157.100Q330.900 153.100 334.850 150.750Q338.800 148.400 342.700 148.400L342.700 148.400Q344.600 148.400 346.300 149.150Q348.000 149.900 349.100 151.500L349.100 151.500Q349.700 152.400 350.300 152.400L350.300 152.400Q350.900 152.400 351.500 151.500L351.500 151.500Q352.600 149.900 353.300 149.450Q354.000 149 354.600 149L354.600 149Q355.900 149 355.600 150.400L355.600 150.400L346.700 188.700Q345.200 195.200 348.700 195.200L348.700 195.200Q351.000 195.200 352.850 192.100Q354.700 189 356.600 182.500L356.600 182.500Q356.900 181.400 357.900 181.400L357.900 181.400Q358.600 181.400 358.800 182Q359.000 182.600 358.800 183.400L358.800 183.400Q356.900 192.800 353.700 196.850Q350.500 200.900 346.000 200.900L346.000 200.900Q342.100 200.900 340.450 197.600Q338.800 194.300 340.100 188.600L340.100 188.600L341.400 183.100Q341.600 182.400 341.150 182.300Q340.700 182.200 340.400 182.800L340.400 182.800Q334.900 192.900 330.650 196.900Q326.400 200.900 322.600 200.900ZM325.100 195.800L325.100 195.800Q327.500 195.800 330.400 192.900Q333.300 190 336.150 185.400Q339.000 180.800 341.400 175.500Q343.800 170.200 345.250 165.300Q346.700 160.400 346.700 157L346.700 157Q346.700 150.900 342.400 150.900L342.400 150.900Q339.800 150.900 336.900 153.250Q334.000 155.600 331.350 159.600Q328.700 163.600 326.550 168.650Q324.400 173.700 323.100 179.150Q321.800 184.600 321.800 189.800L321.800 189.800Q321.800 193.300 322.650 194.550Q323.500 195.800 325.100 195.800ZM366.400 198.700L366.400 198.700L375.900 158.800Q376.400 156.600 376.050 155.350Q375.700 154.100 374.200 154.100L374.200 154.100Q372.400 154.100 370.250 156.750Q368.100 159.400 365.400 166.800L365.400 166.800Q365 168.100 364 168.100L364 168.100Q362.500 168.100 363.200 166.300L363.200 166.300Q365.400 159.400 367.850 155.500Q370.300 151.600 372.800 150Q375.300 148.400 377.400 148.400L377.400 148.400Q380.700 148.400 382.100 150.850Q383.500 153.300 382.200 158.900L382.200 158.900L379.700 169.700Q379.600 170.400 380 170.500Q380.400 170.600 380.700 170L380.700 170Q384.600 161.900 388.200 157.150Q391.800 152.400 395 150.400Q398.200 148.400 400.800 148.400L400.800 148.400Q404.500 148.400 406.200 151.400Q407.900 154.400 406.200 160.600L406.200 160.600L398.600 189.600Q397.900 192.400 398.500 193.800Q399.100 195.200 400.700 195.200L400.700 195.200Q402.700 195.200 404.650 192.550Q406.600 189.900 408.700 182.500L408.700 182.500Q409 181.400 410 181.400L410 181.400Q410.800 181.400 410.950 182Q411.100 182.600 410.900 183.400L410.900 183.400Q409 190.200 406.800 194.050Q404.600 197.900 402.350 199.400Q400.100 200.900 397.800 200.900L397.800 200.900Q394.200 200.900 392.400 197.900Q390.600 194.900 392.200 188.600L392.200 188.600L399.900 159.600Q401 155.700 400.250 154.200Q399.500 152.700 398.100 152.700L398.100 152.700Q395.900 152.700 393.100 155.450Q390.300 158.200 387.400 162.950Q384.500 167.700 381.700 173.700Q378.900 179.700 376.650 186.200Q374.400 192.700 373 198.900L373 198.900Q372.700 200 371.600 200L371.600 200L367.500 200Q366.100 200 366.400 198.700Z" fill="#0B0B0B"></path><path d="M426.700 222.500L426.700 222.500Q421.900 222.500 419.850 220.200Q417.800 217.900 417.800 215.300L417.800 215.300Q417.800 213.200 418.850 211.800Q419.900 210.400 421.800 210.400L421.800 210.400Q424.100 210.400 424.900 211.750Q425.700 213.100 425.900 214.850Q426.100 216.600 426.500 217.950Q426.900 219.300 428.300 219.300L428.300 219.300Q429.900 219.300 431.150 217.600Q432.400 215.900 433.400 213.150Q434.400 210.400 435.150 207.250Q435.900 204.100 436.450 201.200Q437 198.300 437.300 196.300L437.300 196.300L444.200 154.900Q445 150 446.100 145.750Q447.200 141.500 449.100 138.200L449.100 138.200Q450.400 135.800 452.350 133.700Q454.300 131.600 457.200 130.250Q460.100 128.900 464.400 128.900L464.400 128.900Q467.500 128.900 469.600 129.850Q471.700 130.800 472.800 132.400Q473.900 134 473.900 136.200L473.900 136.200Q473.900 138.400 472.700 139.500Q471.500 140.600 469.900 140.600L469.900 140.600Q467.900 140.600 467 139.450Q466.100 138.300 465.900 136.700L465.900 136.700Q465.600 134.800 465.150 133.300Q464.700 131.800 462.900 131.800L462.900 131.800Q459.100 131.800 456.900 135.800Q454.700 139.800 453.600 146.200L453.600 146.200L446.200 191.500Q445.800 194.100 444.950 198Q444.100 201.900 442.650 206.150Q441.200 210.400 439.050 214.100Q436.900 217.800 433.850 220.150Q430.800 222.500 426.700 222.500ZM461.900 153.300L461.300 157.400L435.400 157.400L435.800 153.300L461.900 153.300Z" fill="#0B0B0B"></path><path d="M474.700 200.900L474.700 200.900Q468.500 200.900 464.900 195.750Q461.300 190.600 461.300 181.800L461.300 181.800Q461.300 175.300 463.400 169.300Q465.500 163.300 468.950 158.600Q472.400 153.900 476.650 151.150Q480.900 148.400 485.200 148.400L485.200 148.400Q491.400 148.400 495 153.500Q498.600 158.600 498.600 167.500L498.600 167.500Q498.600 174 496.500 180Q494.400 186 490.950 190.700Q487.500 195.400 483.250 198.150Q479 200.900 474.700 200.900ZM474.500 198.500L474.500 198.500Q477.700 198.500 480.750 195.400Q483.800 192.300 486.300 187.200Q488.800 182.100 490.300 175.850Q491.800 169.600 491.800 163.300L491.800 163.300Q491.800 150.800 485.300 150.800L485.300 150.800Q482.200 150.800 479.100 153.850Q476 156.900 473.550 162Q471.100 167.100 469.600 173.350Q468.100 179.600 468.100 185.900L468.100 185.900Q468.100 198.500 474.500 198.500ZM506.000 198.700L506.000 198.700L515.500 158.800Q516 156.600 515.650 155.350Q515.300 154.100 513.800 154.100L513.800 154.100Q512 154.100 509.850 156.750Q507.700 159.400 505.000 166.800L505.000 166.800Q504.600 168.100 503.600 168.100L503.600 168.100Q502.100 168.100 502.800 166.300L502.800 166.300Q505.000 159.400 507.450 155.500Q509.900 151.600 512.400 150Q514.900 148.400 517 148.400L517 148.400Q520.300 148.400 521.700 150.850Q523.100 153.300 521.800 158.900L521.800 158.900L519.300 169.700Q519.200 170.400 519.600 170.500Q520 170.600 520.300 170L520.300 170Q524.200 161.900 527.800 157.150Q531.400 152.400 534.600 150.400Q537.800 148.400 540.400 148.400L540.400 148.400Q544.100 148.400 545.800 151.400Q547.500 154.400 545.800 160.600L545.800 160.600L538.200 189.600Q537.500 192.400 538.100 193.800Q538.700 195.200 540.300 195.200L540.300 195.200Q542.300 195.200 544.250 192.550Q546.200 189.900 548.300 182.500L548.300 182.500Q548.600 181.400 549.600 181.400L549.600 181.400Q550.400 181.400 550.550 182Q550.700 182.600 550.500 183.400L550.500 183.400Q548.600 190.200 546.400 194.050Q544.200 197.900 541.950 199.400Q539.700 200.900 537.400 200.900L537.400 200.900Q533.800 200.900 532 197.900Q530.200 194.900 531.800 188.600L531.800 188.600L539.500 159.600Q540.600 155.700 539.850 154.200Q539.100 152.700 537.700 152.700L537.700 152.700Q535.500 152.700 532.700 155.450Q529.900 158.200 527 162.950Q524.100 167.700 521.300 173.700Q518.500 179.700 516.250 186.200Q514 192.700 512.600 198.900L512.600 198.900Q512.300 200 511.200 200L511.200 200L507.100 200Q505.700 200 506.000 198.700ZM564.400 200.900L564.400 200.900Q561.100 200.900 557.450 199.900Q553.800 198.900 551.900 197.400L551.900 197.400Q551.200 196.800 551.300 195.600L551.300 195.600L553.500 182.500Q553.700 181.200 554.700 181.200L554.700 181.200Q555.800 181.200 555.800 182.600L555.800 182.600L556.000 187.400Q556.200 193.100 558.750 195.750Q561.300 198.400 565.000 198.400L565.000 198.400Q568.200 198.400 570.500 196.350Q572.800 194.300 572.800 190.300L572.800 190.300Q572.800 188 572.100 186.050Q571.400 184.100 569.900 181.850Q568.400 179.600 565.800 176.400L565.800 176.400Q562.400 172 560.750 168.850Q559.100 165.700 559.100 162.300L559.100 162.300Q559.100 156 563.050 152.200Q567.000 148.400 573.100 148.400L573.100 148.400Q575.800 148.400 578.350 149.200Q580.900 150 582.600 151.600L582.600 151.600Q583.500 152.300 583.200 153.400L583.200 153.400L580.400 166.800Q580.100 168.100 579.200 168.100L579.200 168.100Q578.300 168.100 578.100 166.700L578.100 166.700L577.800 161.900Q577.400 155.900 576.250 153.300Q575.100 150.700 571.500 150.700L571.500 150.700Q568.300 150.700 566.300 152.900Q564.300 155.100 564.300 158.200L564.300 158.200Q564.300 161.500 566.100 164.250Q567.900 167 571.000 171.200L571.000 171.200Q575.100 176.600 576.550 179.800Q578.000 183 578.000 186.300L578.000 186.300Q578.000 190.500 576.150 193.800Q574.300 197.100 571.200 199Q568.100 200.900 564.400 200.900ZM595.900 200.900L595.900 200.900Q590.600 200.900 587.400 196.750Q584.200 192.600 584.200 185L584.200 185Q584.200 178.400 586.550 171.900Q588.900 165.400 592.700 160.100Q596.500 154.800 601.050 151.600Q605.600 148.400 609.900 148.400L609.900 148.400Q614.600 148.400 616.650 150.650Q618.700 152.900 618.700 156.700L618.700 156.700Q618.700 161.200 615.550 165.650Q612.400 170.100 606.750 173.600Q601.100 177.100 593.500 178.800L593.500 178.800Q591.300 179.300 591.200 181.300L591.200 181.300Q591.100 182 591.100 182.750Q591.100 183.500 591.100 184.200L591.100 184.200Q591.100 189.900 593.050 192.800Q595.000 195.700 598.400 195.700L598.400 195.700Q602.200 195.700 605.750 192.200Q609.300 188.700 611.700 182.300L611.700 182.300Q612.000 181.400 612.900 181.400L612.900 181.400Q613.500 181.400 613.650 181.900Q613.800 182.400 613.600 183.100L613.600 183.100Q610.400 191.900 605.850 196.400Q601.300 200.900 595.900 200.900ZM592.200 175L592.200 175Q592.000 175.700 592.450 176.150Q592.900 176.600 593.600 176.400L593.600 176.400Q599.800 174.700 604.000 171.250Q608.200 167.800 610.350 163.500Q612.500 159.200 612.500 155.100L612.500 155.100Q612.500 150.900 609.200 150.900L609.200 150.900Q606.300 150.900 602.900 154.300Q599.500 157.700 596.600 163.200Q593.700 168.700 592.200 175ZM632.000 200.900L632.000 200.900Q626.500 200.900 622.900 196.350Q619.300 191.800 619.300 184.700L619.300 184.700Q619.300 178 621.450 171.550Q623.600 165.100 627.250 159.850Q630.900 154.600 635.350 151.500Q639.800 148.400 644.300 148.400L644.300 148.400Q649.100 148.400 652.400 151L652.400 151Q652.900 151.400 653.000 151.650Q653.100 151.900 652.900 152.700L652.900 152.700L650.200 165.800Q649.900 167.200 648.900 167.200L648.900 167.200Q647.800 167.200 647.600 165.700L647.600 165.700L647.100 158.600Q646.800 154 645.750 152.600Q644.700 151.200 642.700 151.200L642.700 151.200Q639.900 151.200 637.000 153.950Q634.100 156.700 631.650 161.350Q629.200 166 627.750 171.650Q626.300 177.300 626.300 183.100L626.300 183.100Q626.300 195.700 634.500 195.700L634.500 195.700Q638.400 195.700 641.550 192.100Q644.700 188.500 647.400 180.900L647.400 180.900Q647.700 179.900 648.800 179.900L648.800 179.900Q649.400 179.900 649.500 180.350Q649.600 180.800 649.300 182.100L649.300 182.100Q648.300 187.600 645.700 191.800Q643.100 196 639.550 198.450Q636.000 200.900 632.000 200.900ZM661.800 200.900L661.800 200.900Q658.200 200.900 656.200 197.800Q654.200 194.700 654.200 188.700L654.200 188.700Q654.200 183 655.800 177.250Q657.400 171.500 660.200 166.300Q663.000 161.100 666.550 157.100Q670.100 153.100 674.050 150.750Q678.000 148.400 681.900 148.400L681.900 148.400Q683.800 148.400 685.500 149.150Q687.200 149.900 688.300 151.500L688.300 151.500Q688.900 152.400 689.500 152.400L689.500 152.400Q690.100 152.400 690.700 151.500L690.700 151.500Q691.800 149.900 692.500 149.450Q693.200 149 693.800 149L693.800 149Q695.100 149 694.800 150.400L694.800 150.400L685.900 188.700Q684.400 195.200 687.900 195.200L687.900 195.200Q690.200 195.200 692.050 192.100Q693.900 189 695.800 182.500L695.800 182.500Q696.100 181.400 697.100 181.400L697.100 181.400Q697.800 181.400 698.000 182Q698.200 182.600 698.000 183.400L698.000 183.400Q696.100 192.800 692.900 196.850Q689.700 200.900 685.200 200.900L685.200 200.900Q681.300 200.900 679.650 197.600Q678.000 194.300 679.300 188.600L679.300 188.600L680.600 183.100Q680.800 182.400 680.350 182.300Q679.900 182.200 679.600 182.800L679.600 182.800Q674.100 192.900 669.850 196.900Q665.600 200.900 661.800 200.900ZM664.300 195.800L664.300 195.800Q666.700 195.800 669.600 192.900Q672.500 190 675.350 185.400Q678.200 180.800 680.600 175.500Q683.000 170.200 684.450 165.300Q685.900 160.400 685.900 157L685.900 157Q685.900 150.900 681.600 150.900L681.600 150.900Q679.000 150.900 676.100 153.250Q673.200 155.600 670.550 159.600Q667.900 163.600 665.750 168.650Q663.600 173.700 662.300 179.150Q661.000 184.600 661.000 189.800L661.000 189.800Q661.000 193.300 661.850 194.550Q662.700 195.800 664.300 195.800Z" fill="#0B0B0B"></path><path d="M728.540 212.320L722.828 212.320L722.828 202.352L727.980 202.352Q733.020 202.352 735.876 200Q738.732 197.648 738.060 193.168L738.060 193.168L735.372 175.024Q734.476 168.864 737.780 164.552Q741.084 160.240 746.796 159.232L746.796 159.232Q740.972 158.224 737.724 154.416Q734.476 150.608 735.372 144.336L735.372 144.336L738.060 126.192Q738.732 121.712 735.876 119.360Q733.020 117.008 727.980 117.008L727.980 117.008L722.828 117.008L722.828 107.040L728.540 107.040Q735.036 107.040 740.020 109.280Q745.004 111.520 747.468 115.720Q749.932 119.920 749.148 125.856L749.148 125.856L746.460 144Q745.676 149.600 747.972 152.176Q750.268 154.752 756.988 154.752L756.988 154.752L771.324 154.752L771.324 164.720L756.988 164.720Q750.380 164.720 748.028 167.240Q745.676 169.760 746.460 175.360L746.460 175.360L749.148 193.392Q749.932 199.328 747.468 203.584Q745.004 207.840 740.076 210.080Q735.148 212.320 728.540 212.320L728.540 212.320Z" fill="#EC4899"></path></svg>