<svg xmlns="http://www.w3.org/2000/svg" width="200" height="144" viewBox="-6 93 200 144" role="img" aria-label="{f} Christian Fonseca"><defs><linearGradient id="gv" x1="0" y1="0" x2="0" y2="1"><stop offset="0" stop-color="#A855F7"></stop><stop offset="1" stop-color="#EC4899"></stop></linearGradient></defs><path d="M56.784 212.320L51.072 212.320Q41.104 212.320 35.336 207.336Q29.568 202.352 30.352 193.392L30.352 193.392L32.032 175.360Q32.592 169.760 30.408 167.240Q28.224 164.720 21.504 164.720L21.504 164.720L8.288 164.720L8.288 154.752L21.504 154.752Q28.224 154.752 30.408 152.176Q32.592 149.600 32.032 144L32.032 144L30.352 125.856Q29.568 117.008 35.336 112.024Q41.104 107.040 51.072 107.040L51.072 107.040L56.784 107.040L56.784 117.008L51.520 117.008Q46.480 117.008 43.792 119.360Q41.104 121.712 41.440 126.192L41.440 126.192L43.120 144.336Q43.792 150.720 40.096 154.640Q36.400 158.560 28.448 159.344L28.448 159.344Q36.400 160.240 40.096 164.496Q43.792 168.752 43.120 175.024L43.120 175.024L41.440 193.168Q41.104 197.648 43.792 200Q46.480 202.352 51.520 202.352L51.520 202.352L56.784 202.352L56.784 212.320Z" fill="#6928B0"></path><path d="M75.700 222.500L75.700 222.500Q70.900 222.500 68.850 220.200Q66.800 217.900 66.800 215.300L66.800 215.300Q66.800 213.200 67.850 211.800Q68.900 210.400 70.800 210.400L70.800 210.400Q73.100 210.400 73.900 211.750Q74.700 213.100 74.900 214.850Q75.100 216.600 75.500 217.950Q75.900 219.300 77.300 219.300L77.300 219.300Q78.900 219.300 80.150 217.600Q81.400 215.900 82.400 213.150Q83.400 210.400 84.150 207.250Q84.900 204.100 85.450 201.200Q86 198.300 86.300 196.300L86.300 196.300L93.200 154.900Q94 150 95.100 145.750Q96.200 141.500 98.100 138.200L98.100 138.200Q99.400 135.800 101.350 133.700Q103.300 131.600 106.200 130.250Q109.100 128.900 113.400 128.900L113.400 128.900Q116.500 128.900 118.600 129.850Q120.700 130.800 121.800 132.400Q122.900 134 122.900 136.200L122.900 136.200Q122.900 138.400 121.700 139.500Q120.500 140.600 118.900 140.600L118.900 140.600Q116.900 140.600 116 139.450Q115.100 138.300 114.900 136.700L114.900 136.700Q114.600 134.800 114.150 133.300Q113.700 131.800 111.900 131.800L111.900 131.800Q108.100 131.800 105.900 135.800Q103.700 139.800 102.600 146.200L102.600 146.200L95.200 191.500Q94.800 194.100 93.950 198Q93.100 201.900 91.650 206.150Q90.200 210.400 88.050 214.100Q85.900 217.800 82.850 220.150Q79.800 222.500 75.700 222.500ZM110.900 153.300L110.300 157.400L84.400 157.400L84.800 153.300L110.900 153.300Z" fill="#0B0B0B"></path><path d="M136.540 212.320L130.828 212.320L130.828 202.352L135.980 202.352Q141.020 202.352 143.876 200Q146.732 197.648 146.060 193.168L146.060 193.168L143.372 175.024Q142.476 168.864 145.780 164.552Q149.084 160.240 154.796 159.232L154.796 159.232Q148.972 158.224 145.724 154.416Q142.476 150.608 143.372 144.336L143.372 144.336L146.060 126.192Q146.732 121.712 143.876 119.360Q141.020 117.008 135.980 117.008L135.980 117.008L130.828 117.008L130.828 107.040L136.540 107.040Q143.036 107.040 148.020 109.280Q153.004 111.520 155.468 115.720Q157.932 119.920 157.148 125.856L157.148 125.856L154.460 144Q153.676 149.600 155.972 152.176Q158.268 154.752 164.988 154.752L164.988 154.752L179.324 154.752L179.324 164.720L164.988 164.720Q158.380 164.720 156.028 167.240Q153.676 169.760 154.460 175.360L154.460 175.360L157.148 193.392Q157.932 199.328 155.468 203.584Q153.004 207.840 148.076 210.080Q143.148 212.320 136.540 212.320L136.540 212.320Z" fill="#EC4899"></path></svg>