<svg xmlns="http://www.w3.org/2000/svg" width="441" height="144" viewBox="-6 93 441 144" role="img" aria-label="{fonseca}"><defs><linearGradient id="gv" x1="0" y1="0" x2="0" y2="1"><stop offset="0" stop-color="#A855F7"></stop><stop offset="1" stop-color="#EC4899"></stop></linearGradient></defs><path d="M56.784 212.320L51.072 212.320Q41.104 212.320 35.336 207.336Q29.568 202.352 30.352 193.392L30.352 193.392L32.032 175.360Q32.592 169.760 30.408 167.240Q28.224 164.720 21.504 164.720L21.504 164.720L8.288 164.720L8.288 154.752L21.504 154.752Q28.224 154.752 30.408 152.176Q32.592 149.600 32.032 144L32.032 144L30.352 125.856Q29.568 117.008 35.336 112.024Q41.104 107.040 51.072 107.040L51.072 107.040L56.784 107.040L56.784 117.008L51.520 117.008Q46.480 117.008 43.792 119.360Q41.104 121.712 41.440 126.192L41.440 126.192L43.120 144.336Q43.792 150.720 40.096 154.640Q36.400 158.560 28.448 159.344L28.448 159.344Q36.400 160.240 40.096 164.496Q43.792 168.752 43.120 175.024L43.120 175.024L41.440 193.168Q41.104 197.648 43.792 200Q46.480 202.352 51.520 202.352L51.520 202.352L56.784 202.352L56.784 212.320Z" fill="url(#gv)"></path><path d="M75.700 222.500L75.700 222.500Q70.900 222.500 68.850 220.200Q66.800 217.900 66.800 215.300L66.800 215.300Q66.800 213.200 67.850 211.800Q68.900 210.400 70.800 210.400L70.800 210.400Q73.100 210.400 73.900 211.750Q74.700 213.100 74.900 214.850Q75.100 216.600 75.500 217.950Q75.900 219.300 77.300 219.300L77.300 219.300Q78.900 219.300 80.150 217.600Q81.400 215.900 82.400 213.150Q83.400 210.400 84.150 207.250Q84.900 204.100 85.450 201.200Q86 198.300 86.300 196.300L86.300 196.300L93.200 154.900Q94 150 95.100 145.750Q96.200 141.500 98.100 138.200L98.100 138.200Q99.400 135.800 101.350 133.700Q103.300 131.600 106.200 130.250Q109.100 128.900 113.400 128.900L113.400 128.900Q116.500 128.900 118.600 129.850Q120.700 130.800 121.800 132.400Q122.900 134 122.900 136.200L122.900 136.200Q122.900 138.400 121.700 139.500Q120.500 140.600 118.900 140.600L118.900 140.600Q116.900 140.600 116 139.450Q115.100 138.300 114.900 136.700L114.900 136.700Q114.600 134.800 114.150 133.300Q113.700 131.800 111.900 131.800L111.900 131.800Q108.100 131.800 105.900 135.800Q103.700 139.800 102.600 146.200L102.600 146.200L95.200 191.500Q94.800 194.100 93.950 198Q93.100 201.900 91.650 206.150Q90.200 210.400 88.050 214.100Q85.900 217.800 82.850 220.150Q79.800 222.500 75.700 222.500ZM110.900 153.300L110.300 157.400L84.400 157.400L84.800 153.300L110.900 153.300Z" fill="#EEEEEE"></path><path d="M123.700 200.900L123.700 200.900Q117.500 200.900 113.900 195.750Q110.300 190.600 110.300 181.800L110.300 181.800Q110.300 175.300 112.400 169.300Q114.500 163.300 117.950 158.600Q121.400 153.900 125.650 151.150Q129.900 148.400 134.200 148.400L134.200 148.400Q140.400 148.400 144 153.500Q147.600 158.600 147.600 167.500L147.600 167.500Q147.600 174 145.500 180Q143.400 186 139.950 190.700Q136.500 195.400 132.250 198.150Q128 200.900 123.700 200.900ZM123.500 198.500L123.500 198.500Q126.700 198.500 129.750 195.400Q132.800 192.300 135.300 187.200Q137.800 182.100 139.300 175.850Q140.800 169.600 140.800 163.300L140.800 163.300Q140.800 150.800 134.300 150.800L134.300 150.800Q131.200 150.800 128.100 153.850Q125.000 156.900 122.550 162Q120.100 167.100 118.600 173.350Q117.100 179.600 117.100 185.900L117.100 185.900Q117.100 198.500 123.500 198.500ZM155.000 198.700L155.000 198.700L164.500 158.800Q165.000 156.600 164.650 155.350Q164.300 154.100 162.800 154.100L162.800 154.100Q161.000 154.100 158.850 156.750Q156.700 159.400 154.000 166.800L154.000 166.800Q153.600 168.100 152.600 168.100L152.600 168.100Q151.100 168.100 151.800 166.300L151.800 166.300Q154.000 159.400 156.450 155.500Q158.900 151.600 161.400 150Q163.900 148.400 166.000 148.400L166.000 148.400Q169.300 148.400 170.700 150.850Q172.100 153.300 170.800 158.900L170.800 158.900L168.300 169.700Q168.200 170.400 168.600 170.500Q169.000 170.600 169.300 170L169.300 170Q173.200 161.900 176.800 157.150Q180.400 152.400 183.600 150.400Q186.800 148.400 189.400 148.400L189.400 148.400Q193.100 148.400 194.800 151.400Q196.500 154.400 194.800 160.600L194.800 160.600L187.200 189.600Q186.500 192.400 187.100 193.800Q187.700 195.200 189.300 195.200L189.300 195.200Q191.300 195.200 193.250 192.550Q195.200 189.900 197.300 182.500L197.300 182.500Q197.600 181.400 198.600 181.400L198.600 181.400Q199.400 181.400 199.550 182Q199.700 182.600 199.500 183.400L199.500 183.400Q197.600 190.200 195.400 194.050Q193.200 197.900 190.950 199.400Q188.700 200.900 186.400 200.900L186.400 200.900Q182.800 200.900 181.000 197.900Q179.200 194.900 180.800 188.600L180.800 188.600L188.500 159.600Q189.600 155.700 188.850 154.200Q188.100 152.700 186.700 152.700L186.700 152.700Q184.500 152.700 181.700 155.450Q178.900 158.200 176.000 162.950Q173.100 167.700 170.300 173.700Q167.500 179.700 165.250 186.200Q163.000 192.700 161.600 198.900L161.600 198.900Q161.300 200 160.200 200L160.200 200L156.100 200Q154.700 200 155.000 198.700ZM213.400 200.900L213.400 200.900Q210.100 200.900 206.450 199.900Q202.800 198.900 200.900 197.400L200.900 197.400Q200.200 196.800 200.300 195.600L200.300 195.600L202.500 182.500Q202.700 181.200 203.700 181.200L203.700 181.200Q204.800 181.200 204.800 182.600L204.800 182.600L205 187.400Q205.200 193.100 207.750 195.750Q210.300 198.400 214 198.400L214 198.400Q217.200 198.400 219.500 196.350Q221.800 194.300 221.800 190.300L221.800 190.300Q221.800 188 221.100 186.050Q220.400 184.100 218.900 181.850Q217.400 179.600 214.800 176.400L214.800 176.400Q211.400 172 209.750 168.850Q208.100 165.700 208.100 162.300L208.100 162.300Q208.100 156 212.050 152.200Q216 148.400 222.100 148.400L222.100 148.400Q224.800 148.400 227.350 149.200Q229.900 150 231.600 151.600L231.600 151.600Q232.500 152.300 232.200 153.400L232.200 153.400L229.400 166.800Q229.100 168.100 228.200 168.100L228.200 168.100Q227.300 168.100 227.100 166.700L227.100 166.700L226.800 161.900Q226.400 155.900 225.250 153.300Q224.100 150.700 220.500 150.700L220.500 150.700Q217.300 150.700 215.300 152.900Q213.300 155.100 213.300 158.200L213.300 158.200Q213.300 161.500 215.100 164.250Q216.900 167 220 171.200L220 171.200Q224.100 176.600 225.550 179.800Q227 183 227 186.300L227 186.300Q227 190.500 225.150 193.800Q223.300 197.100 220.200 199Q217.100 200.900 213.400 200.900ZM244.900 200.900L244.900 200.900Q239.600 200.900 236.400 196.750Q233.200 192.600 233.200 185L233.200 185Q233.200 178.400 235.550 171.900Q237.900 165.400 241.700 160.100Q245.500 154.800 250.050 151.600Q254.600 148.400 258.900 148.400L258.900 148.400Q263.600 148.400 265.650 150.650Q267.700 152.900 267.700 156.700L267.700 156.700Q267.700 161.200 264.550 165.650Q261.400 170.100 255.750 173.600Q250.100 177.100 242.500 178.800L242.500 178.800Q240.300 179.300 240.200 181.300L240.200 181.300Q240.100 182 240.100 182.750Q240.100 183.500 240.100 184.200L240.100 184.200Q240.100 189.900 242.050 192.800Q244 195.700 247.400 195.700L247.400 195.700Q251.200 195.700 254.750 192.200Q258.300 188.700 260.700 182.300L260.700 182.300Q261 181.400 261.900 181.400L261.900 181.400Q262.500 181.400 262.650 181.900Q262.800 182.400 262.600 183.100L262.600 183.100Q259.400 191.900 254.850 196.400Q250.300 200.900 244.900 200.900ZM241.200 175L241.200 175Q241 175.700 241.450 176.150Q241.900 176.600 242.600 176.400L242.600 176.400Q248.800 174.700 253 171.250Q257.200 167.800 259.350 163.500Q261.500 159.200 261.500 155.100L261.500 155.100Q261.500 150.900 258.200 150.900L258.200 150.900Q255.300 150.900 251.900 154.300Q248.500 157.700 245.600 163.200Q242.700 168.700 241.200 175ZM281 200.900L281 200.900Q275.500 200.900 271.900 196.350Q268.300 191.800 268.300 184.700L268.300 184.700Q268.300 178 270.450 171.550Q272.600 165.100 276.250 159.850Q279.900 154.600 284.350 151.500Q288.800 148.400 293.300 148.400L293.300 148.400Q298.100 148.400 301.400 151L301.400 151Q301.900 151.400 302 151.650Q302.100 151.900 301.900 152.700L301.900 152.700L299.200 165.800Q298.900 167.200 297.900 167.200L297.900 167.200Q296.800 167.200 296.600 165.700L296.600 165.700L296.100 158.600Q295.800 154 294.750 152.600Q293.700 151.200 291.700 151.200L291.700 151.200Q288.900 151.200 286 153.950Q283.100 156.700 280.650 161.350Q278.200 166 276.750 171.650Q275.300 177.300 275.300 183.100L275.300 183.100Q275.300 195.700 283.500 195.700L283.500 195.700Q287.400 195.700 290.550 192.100Q293.700 188.500 296.400 180.900L296.400 180.900Q296.700 179.900 297.800 179.900L297.800 179.900Q298.400 179.900 298.500 180.350Q298.600 180.800 298.300 182.100L298.300 182.100Q297.300 187.600 294.700 191.800Q292.100 196 288.550 198.450Q285 200.900 281 200.900ZM310.800 200.900L310.800 200.900Q307.200 200.900 305.200 197.800Q303.200 194.700 303.200 188.700L303.200 188.700Q303.200 183 304.800 177.250Q306.400 171.500 309.200 166.300Q312.000 161.100 315.550 157.100Q319.100 153.100 323.050 150.750Q327.000 148.400 330.900 148.400L330.900 148.400Q332.800 148.400 334.500 149.150Q336.200 149.900 337.300 151.500L337.300 151.500Q337.900 152.400 338.500 152.400L338.500 152.400Q339.100 152.400 339.700 151.500L339.700 151.500Q340.800 149.900 341.500 149.450Q342.200 149 342.800 149L342.800 149Q344.100 149 343.800 150.400L343.800 150.400L334.900 188.700Q333.400 195.200 336.900 195.200L336.900 195.200Q339.200 195.200 341.050 192.100Q342.900 189 344.800 182.500L344.800 182.500Q345.100 181.400 346.100 181.400L346.100 181.400Q346.800 181.400 347.000 182Q347.200 182.600 347.000 183.400L347.000 183.400Q345.100 192.800 341.900 196.850Q338.700 200.900 334.200 200.900L334.200 200.900Q330.300 200.900 328.650 197.600Q327.000 194.300 328.300 188.600L328.300 188.600L329.600 183.100Q329.800 182.400 329.350 182.300Q328.900 182.200 328.600 182.800L328.600 182.800Q323.100 192.900 318.850 196.900Q314.600 200.900 310.800 200.900ZM313.300 195.800L313.300 195.800Q315.700 195.800 318.600 192.900Q321.500 190 324.350 185.400Q327.200 180.800 329.600 175.500Q332.000 170.200 333.450 165.300Q334.900 160.400 334.900 157L334.900 157Q334.900 150.900 330.600 150.900L330.600 150.900Q328.000 150.900 325.100 153.250Q322.200 155.600 319.550 159.600Q316.900 163.600 314.750 168.650Q312.600 173.700 311.300 179.150Q310.000 184.600 310.000 189.800L310.000 189.800Q310.000 193.300 310.850 194.550Q311.700 195.800 313.300 195.800Z" fill="#CBBFDD"></path><path d="M377.540 212.320L371.828 212.320L371.828 202.352L376.980 202.352Q382.020 202.352 384.876 200Q387.732 197.648 387.060 193.168L387.060 193.168L384.372 175.024Q383.476 168.864 386.780 164.552Q390.084 160.240 395.796 159.232L395.796 159.232Q389.972 158.224 386.724 154.416Q383.476 150.608 384.372 144.336L384.372 144.336L387.060 126.192Q387.732 121.712 384.876 119.360Q382.020 117.008 376.980 117.008L376.980 117.008L371.828 117.008L371.828 107.040L377.540 107.040Q384.036 107.040 389.020 109.280Q394.004 111.520 396.468 115.720Q398.932 119.920 398.148 125.856L398.148 125.856L395.460 144Q394.676 149.600 396.972 152.176Q399.268 154.752 405.988 154.752L405.988 154.752L420.324 154.752L420.324 164.720L405.988 164.720Q399.380 164.720 397.028 167.240Q394.676 169.760 395.460 175.360L395.460 175.360L398.148 193.392Q398.932 199.328 396.468 203.584Q394.004 207.840 389.076 210.080Q384.148 212.320 377.540 212.320L377.540 212.320Z" fill="url(#gv)"></path></svg>