<svg xmlns="http://www.w3.org/2000/svg" width="512" height="512" viewBox="0 0 512 512" role="img" aria-label="CF avatar"><defs><linearGradient id="bg" x1="0" y1="0" x2="1" y2="1"><stop offset="0" stop-color="#A855F7"></stop><stop offset="1" stop-color="#EC4899"></stop></linearGradient></defs><rect width="512" height="512" rx="123" fill="url(#bg)"></rect><g transform="translate(78.39 126.46)"><path d="M113.568 224.640L102.144 224.640Q82.208 224.640 70.672 214.672Q59.136 204.704 60.704 186.784L60.704 186.784L64.064 150.720Q65.184 139.520 60.816 134.480Q56.448 129.440 43.008 129.440L43.008 129.440L16.576 129.440L16.576 109.504L43.008 109.504Q56.448 109.504 60.816 104.352Q65.184 99.200 64.064 88L64.064 88L60.704 51.712Q59.136 34.016 70.672 24.048Q82.208 14.080 102.144 14.080L102.144 14.080L113.568 14.080L113.568 34.016L103.040 34.016Q92.960 34.016 87.584 38.720Q82.208 43.424 82.880 52.384L82.880 52.384L86.240 88.672Q87.584 101.440 80.192 109.280Q72.800 117.120 56.896 118.688L56.896 118.688Q72.800 120.480 80.192 128.992Q87.584 137.504 86.240 150.048L86.240 150.048L82.880 186.336Q82.208 195.296 87.584 200Q92.960 204.704 103.040 204.704L103.040 204.704L113.568 204.704L113.568 224.640Z" fill="#FDFCFF"></path><path d="M141.400 245L141.400 245Q131.800 245 127.700 240.400Q123.600 235.800 123.600 230.600L123.600 230.600Q123.600 226.400 125.700 223.600Q127.800 220.800 131.600 220.800L131.600 220.800Q136.200 220.800 137.800 223.500Q139.400 226.200 139.800 229.700Q140.200 233.200 141 235.900Q141.800 238.600 144.600 238.600L144.600 238.600Q147.800 238.600 150.300 235.200Q152.800 231.800 154.800 226.300Q156.800 220.800 158.300 214.500Q159.800 208.200 160.900 202.400Q162 196.600 162.600 192.600L162.600 192.600L176.400 109.800Q178 100 180.200 91.500Q182.400 83 186.200 76.400L186.200 76.400Q188.800 71.600 192.700 67.400Q196.600 63.200 202.400 60.500Q208.200 57.800 216.800 57.800L216.800 57.800Q223 57.800 227.200 59.700Q231.400 61.600 233.600 64.800Q235.800 68 235.800 72.400L235.800 72.400Q235.800 76.800 233.400 79Q231 81.200 227.800 81.200L227.800 81.200Q223.800 81.200 222 78.900Q220.200 76.600 219.800 73.400L219.800 73.400Q219.200 69.600 218.300 66.600Q217.400 63.600 213.800 63.600L213.800 63.600Q206.200 63.600 201.800 71.600Q197.400 79.600 195.200 92.400L195.200 92.400L180.400 183Q179.600 188.200 177.900 196Q176.200 203.800 173.300 212.300Q170.400 220.800 166.100 228.200Q161.800 235.600 155.700 240.300Q149.600 245 141.400 245ZM211.800 106.600L210.600 114.800L158.800 114.800L159.600 106.600L211.800 106.600Z" fill="#FDFCFF"></path><path d="M253.080 224.640L241.656 224.640L241.656 204.704L251.960 204.704Q262.040 204.704 267.752 200Q273.464 195.296 272.120 186.336L272.120 186.336L266.744 150.048Q264.952 137.728 271.560 129.104Q278.168 120.480 289.592 118.464L289.592 118.464Q277.944 116.448 271.448 108.832Q264.952 101.216 266.744 88.672L266.744 88.672L272.120 52.384Q273.464 43.424 267.752 38.720Q262.040 34.016 251.960 34.016L251.960 34.016L241.656 34.016L241.656 14.080L253.080 14.080Q266.072 14.080 276.040 18.560Q286.008 23.040 290.936 31.440Q295.864 39.840 294.296 51.712L294.296 51.712L288.920 88Q287.352 99.200 291.944 104.352Q296.536 109.504 309.976 109.504L309.976 109.504L338.648 109.504L338.648 129.440L309.976 129.440Q296.760 129.440 292.056 134.480Q287.352 139.520 288.920 150.720L288.920 150.720L294.296 186.784Q295.864 198.656 290.936 207.168Q286.008 215.680 276.152 220.160Q266.296 224.640 253.080 224.640L253.080 224.640Z" fill="#FDFCFF"></path></g></svg>